<?xml version="1.0" encoding="utf-8"?>
<!-- Generator: Adobe Illustrator 18.0.0, SVG Export Plug-In . SVG Version: 6.00 Build 0)  -->
<!DOCTYPE svg PUBLIC "-//W3C//DTD SVG 1.1//EN" "http://www.w3.org/Graphics/SVG/1.1/DTD/svg11.dtd">
<svg version="1.1" id="Layer_1" xmlns="http://www.w3.org/2000/svg" xmlns:xlink="http://www.w3.org/1999/xlink" x="0px" y="0px"
	 viewBox="0 0 77 77" enable-background="new 0 0 77 77" xml:space="preserve">
<g id="BACKGROUND">
	<linearGradient id="SVGID_1_" gradientUnits="userSpaceOnUse" x1="38.5" y1="77" x2="38.5" y2="-1.188710e-009">
		<stop  offset="0" style="stop-color:#2BBFFE"/>
		<stop  offset="1" style="stop-color:#50CAFE"/>
	</linearGradient>
	<path fill="url(#SVGID_1_)" d="M77,65c0,6.6-5.4,12-12,12H12C5.4,77,0,71.6,0,65V12C0,5.4,5.4,0,12,0h53c6.6,0,12,5.4,12,12V65z"/>
</g>
<path id="STICKER_SHADOW" fill="#29A3D8" d="M57.4,65H0V14h47.7L64,30.4v27.9C64,62,61,65,57.4,65z"/>
<path id="STICKER" fill="#E9F4F9" d="M57.4,64H0V13h47.7L64,29.4v27.9C64,61,61,64,57.4,64z"/>
<path id="QR" fill="#444444" d="M31,29c-1.1,0-2,0.9-2,2v6h4v2h2v-2h2v-8H31z M37,37v2h-2v2h-2v-2h-2v2h-2v6c0,1.1,0.9,2,2,2h6h2v-2
	h-2v-2h2v2h2v-2h2v-2h4v-2h2v-2h-2h-2v2h-2v-2h-1h-1v-2h-2H37z M41,37h2v2h2v-2h4v-6c0-1.1-0.9-2-2-2h-6V37z M47,43v2h2v-2H47z
	 M47,45h-2v2h2V45z M47,47v2c1.1,0,2-0.9,2-2H47z M45,47h-2v2h2V47z M31,31h4v4h-4V31z M43,31h4v4h-4V31z M32,32v2h2v-2H32z M44,32
	v2h2v-2H44z M37,41h2v2h-2V41z M31,43h4v4h-4V43z M32,44v2h2v-2H32z"/>
<path id="CORNER_SHADOW" opacity="0.5" d="M54,30l10-1L48,13v11.7C48,28.9,49.9,30,54,30z"/>
<path id="CORNER" fill="#CAE4EF" d="M54.1,29H64L48,13v9.9C48,26.9,50.1,29,54.1,29z"/>
<rect id="TEXT_TITLE" x="8" y="29" fill="#444444" width="13" height="3"/>
<path id="TEXT" fill="#BBC3C7" d="M21,37H8v-2h13V37z M21,39H8v2h13V39z M21,43H8v2h13V43z M15,47H8v2h7V47z"/>
</svg>
