<?xml version="1.0" encoding="utf-8"?>
<!-- Generator: Adobe Illustrator 18.0.0, SVG Export Plug-In . SVG Version: 6.00 Build 0)  -->
<!DOCTYPE svg PUBLIC "-//W3C//DTD SVG 1.1//EN" "http://www.w3.org/Graphics/SVG/1.1/DTD/svg11.dtd">
<svg version="1.1" id="Layer_1" xmlns="http://www.w3.org/2000/svg" xmlns:xlink="http://www.w3.org/1999/xlink" x="0px" y="0px"
	 viewBox="0 0 256 256" enable-background="new 0 0 256 256" xml:space="preserve">
<g id="BACKGROUND">
	<linearGradient id="SVGID_1_" gradientUnits="userSpaceOnUse" x1="128" y1="256" x2="128" y2="-3.949935e-009">
		<stop  offset="0" style="stop-color:#3FCFDC"/>
		<stop  offset="1" style="stop-color:#7CCCE3"/>
	</linearGradient>
	<path fill="url(#SVGID_1_)" d="M256,216c0,22-18,40-40,40H40c-22,0-40-18-40-40V40C0,18,18,0,40,0h176c22,0,40,18,40,40V216z"/>
</g>
<linearGradient id="LINES_2_" gradientUnits="userSpaceOnUse" x1="128" y1="256" x2="128" y2="-1.336957e-010">
	<stop  offset="0" style="stop-color:#B1DBE8;stop-opacity:0"/>
	<stop  offset="0.2" style="stop-color:#B1DBE8"/>
	<stop  offset="0.8" style="stop-color:#B1DBE8"/>
	<stop  offset="1" style="stop-color:#B1DBE8;stop-opacity:0"/>
</linearGradient>
<path id="LINES_1_" fill="url(#LINES_2_)" d="M125,47V0h6v47l-3-3L125,47z M57,194v62h6v-62H57z M120,156.9H94v6h26c2.8,0,5,2.2,5,5
	V256h6v-88.1C131,161.8,126.1,156.9,120,156.9z M63,126V98c0-2.8,2.2-5,5-5h17l-3-3l3-3H68c-6.1,0-11,4.9-11,11v28H63z M188,93
	c2.8,0,5,2.2,5,5v24.1c1-0.1,2-0.1,3-0.1s2,0.1,3,0.1V98c0-6.1-4.9-11-11-11h-17l3,3l-3,3H188z"/>
<path id="SHADOWS_1_" fill="#59A2B3" d="M86,190H34v-52h52V190z M164,90l-36-31L92,90v5l36,36l36-36V90z M225.7,160
	c-2-14.7-14.5-26-29.7-26s-27.8,11.3-29.7,26H166v4c0,16.6,13.4,30,30,30s30-13.4,30-30v-4H225.7z"/>
<g id="FIGURES">
	<circle id="CIRCLE" fill="#FFFFFF" cx="196" cy="160" r="30"/>
	<rect id="SQUARE" x="34" y="134" fill="#F4F57D" width="52" height="52"/>
	
		<rect id="RHOMBUS" x="102.5" y="64.5" transform="matrix(0.7071 -0.7071 0.7071 0.7071 -26.1493 116.8701)" fill="#92FF95" width="50.9" height="50.9"/>
</g>
</svg>
