<?xml version="1.0" encoding="utf-8"?>
<!-- Generator: Adobe Illustrator 18.0.0, SVG Export Plug-In . SVG Version: 6.00 Build 0)  -->
<!DOCTYPE svg PUBLIC "-//W3C//DTD SVG 1.1//EN" "http://www.w3.org/Graphics/SVG/1.1/DTD/svg11.dtd">
<svg version="1.1" id="Layer_1" xmlns="http://www.w3.org/2000/svg" xmlns:xlink="http://www.w3.org/1999/xlink" x="0px" y="0px"
	 viewBox="0 0 256 256" enable-background="new 0 0 256 256" xml:space="preserve">
<g id="BACKGROUND">
	<linearGradient id="SVGID_1_" gradientUnits="userSpaceOnUse" x1="128" y1="256" x2="128" y2="-3.949935e-009">
		<stop  offset="0" style="stop-color:#2BBFFE"/>
		<stop  offset="1" style="stop-color:#50CAFE"/>
	</linearGradient>
	<path fill="url(#SVGID_1_)" d="M256,216c0,22-18,40-40,40H40c-22,0-40-18-40-40V40C0,18,18,0,40,0h176c22,0,40,18,40,40V216z"/>
</g>
<path id="STICKER_SHADOW" fill="#7881D1" d="M190,214H0V46h158l54,54v92C212,204.2,202.2,214,190,214z"/>
<path id="STICKER" fill="#E9F4F9" d="M190,212H0V44h158l54,54v92C212,202.2,202.2,212,190,212z"/>
<path id="QR" fill="#444444" d="M96,88c-4.4,0-8,3.6-8,8v24h16v8h8v-8h8V88H96z M120,120v8h-8v8h-8v-8h-8v8h-8v24c0,4.4,3.6,8,8,8
	h24h8v-8h-8v-8h8v8h8v-8h8v-8h16v-8h8v-8h-8h-8v8h-8v-8h-4h-4v-8h-8H120z M136,120h8v8h8v-8h16V96c0-4.4-3.6-8-8-8h-24V120z
	 M160,144v8h8v-8H160z M160,152h-8v8h8V152z M160,160v8c4.4,0,8-3.6,8-8H160z M152,160h-8v8h8V160z M96,96h16v16H96V96z M144,96h16
	v16h-16V96z M100,100v8h8v-8H100z M148,100v8h8v-8H148z M120,136h8v8h-8V136z M96,144h16v16H96V144z M100,148v8h8v-8H100z"/>
<path id="CORNER_SHADOW" opacity="0.5" d="M178.8,103l33.3-5l-54-54v38.3C158,95.9,165.1,103,178.8,103z"/>
<path id="CORNER" fill="#CAE4EF" d="M178.8,98H212l-54-54v33.3C158,90.9,165.1,98,178.8,98z"/>
<rect id="TEXT_TITLE" x="24" y="88" fill="#444444" width="40" height="12"/>
<path id="TEXT" fill="#B1B6C2" d="M64,112v8H24v-8H64z M24,136h40v-8H24V136z M24,152h40v-8H24V152z M24,168h24v-8H24V168z"/>
</svg>
